<svg xmlns="http://www.w3.org/2000/svg" width="1200" height="700" viewBox="0 0 1200 700" fill="none">
<defs>
  <linearGradient id="bg" x1="0" y1="0" x2="1" y2="1">
    <stop offset="0%" stop-color="#24103A"/>
    <stop offset="50%" stop-color="#B92973"/>
    <stop offset="100%" stop-color="#FC8A40"/>
  </linearGradient>
  <radialGradient id="glow" cx="0" cy="0" r="1" gradientTransform="translate(280 160) rotate(45) scale(420 280)">
    <stop stop-color="rgba(255,255,255,0.6)" />
    <stop offset="1" stop-color="rgba(255,255,255,0)" />
  </radialGradient>
</defs>
<rect width="1200" height="700" rx="40" fill="#090D18"/>
<rect x="18" y="18" width="1164" height="664" rx="32" fill="url(#bg)" opacity="0.92"/>
<circle cx="260" cy="180" r="210" fill="url(#glow)" opacity="0.6"/>
<circle cx="980" cy="620" r="220" fill="#FC8A40" opacity="0.18"/>
<g opacity="0.18">
  <path d="M0 560 C240 470, 390 650, 620 540 S1020 440, 1200 520" stroke="white" stroke-width="3"/>
  <path d="M0 610 C260 520, 430 700, 700 590 S1040 470, 1200 580" stroke="white" stroke-width="2"/>
</g>
<rect x="64" y="72" width="110" height="40" rx="20" fill="rgba(255,255,255,0.14)"/>
<text x="120" y="98" text-anchor="middle" fill="white" font-size="22" font-family="Arial" font-weight="700">PIXORIS</text>
<text x="72" y="208" fill="white" font-size="76" font-family="Arial" font-weight="800">Cinema Stories</text>
<text x="74" y="272" fill="rgba(255,255,255,0.84)" font-size="30" font-family="Arial">تحلیل فیلم، سریال و اقتباس‌های گیمی</text>
<text x="74" y="320" fill="rgba(255,255,255,0.78)" font-size="24" font-family="Arial">Movies • Series • Adaptations</text>
<g transform="translate(760 120)">
<rect x="18" y="110" width="290" height="188" rx="28" fill="rgba(8,13,28,0.58)" stroke="rgba(255,255,255,0.36)" stroke-width="4"/>
<rect x="10" y="58" width="302" height="70" rx="20" fill="rgba(255,255,255,0.18)" transform="rotate(-8 10 58)"/>
<path d="M44 82 H90" stroke="#fff" stroke-width="10"/><path d="M110 74 H156" stroke="#fff" stroke-width="10"/><path d="M176 66 H222" stroke="#fff" stroke-width="10"/><path d="M242 58 H288" stroke="#fff" stroke-width="10"/>
<text x="60" y="188" fill="white" font-size="44" font-family="Arial" font-weight="800">CUT</text>
<text x="60" y="236" fill="rgba(255,255,255,0.78)" font-size="28" font-family="Arial">Scene 08 / Take 02</text>
<circle cx="366" cy="80" r="50" fill="#FF5E9C" opacity="0.88"/>
<circle cx="366" cy="80" r="22" fill="white"/>
</g>
<rect x="74" y="556" width="220" height="52" rx="18" fill="rgba(255,255,255,0.14)" stroke="rgba(255,255,255,0.25)"/>
<text x="184" y="590" text-anchor="middle" fill="white" font-size="22" font-family="Arial" font-weight="700">Explore More</text>
</svg>