<svg xmlns="http://www.w3.org/2000/svg" width="1200" height="700" viewBox="0 0 1200 700" fill="none">
<defs>
  <linearGradient id="bg" x1="0" y1="0" x2="1" y2="1">
    <stop offset="0%" stop-color="#0E1935"/>
    <stop offset="50%" stop-color="#402D8A"/>
    <stop offset="100%" stop-color="#13C0E8"/>
  </linearGradient>
  <radialGradient id="glow" cx="0" cy="0" r="1" gradientTransform="translate(280 160) rotate(45) scale(420 280)">
    <stop stop-color="rgba(255,255,255,0.6)" />
    <stop offset="1" stop-color="rgba(255,255,255,0)" />
  </radialGradient>
</defs>
<rect width="1200" height="700" rx="40" fill="#090D18"/>
<rect x="18" y="18" width="1164" height="664" rx="32" fill="url(#bg)" opacity="0.92"/>
<circle cx="260" cy="180" r="210" fill="url(#glow)" opacity="0.6"/>
<circle cx="980" cy="620" r="220" fill="#13C0E8" opacity="0.18"/>
<g opacity="0.18">
  <path d="M0 560 C240 470, 390 650, 620 540 S1020 440, 1200 520" stroke="white" stroke-width="3"/>
  <path d="M0 610 C260 520, 430 700, 700 590 S1040 470, 1200 580" stroke="white" stroke-width="2"/>
</g>
<rect x="64" y="72" width="110" height="40" rx="20" fill="rgba(255,255,255,0.14)"/>
<text x="120" y="98" text-anchor="middle" fill="white" font-size="22" font-family="Arial" font-weight="700">PIXORIS</text>
<text x="72" y="208" fill="white" font-size="76" font-family="Arial" font-weight="800">Gaming Reloaded</text>
<text x="74" y="272" fill="rgba(255,255,255,0.84)" font-size="30" font-family="Arial">خبر، معرفی، بررسی و جهان بازی‌ها</text>
<text x="74" y="320" fill="rgba(255,255,255,0.78)" font-size="24" font-family="Arial">Game News • Reviews • Community</text>
<g transform="translate(760 120)">
<rect x="0" y="70" width="320" height="190" rx="86" fill="rgba(8,13,28,0.55)" stroke="rgba(255,255,255,0.36)" stroke-width="4"/>
<circle cx="85" cy="165" r="28" fill="rgba(255,255,255,0.12)"/>
<rect x="70" y="133" width="30" height="64" rx="8" fill="white"/>
<rect x="53" y="150" width="64" height="30" rx="8" fill="white"/>
<circle cx="240" cy="150" r="16" fill="#FFDB4D"/>
<circle cx="275" cy="180" r="16" fill="#00E7FF"/>
<circle cx="240" cy="210" r="16" fill="#FF5E9C"/>
<circle cx="205" cy="180" r="16" fill="#A470FF"/>
<circle cx="120" cy="292" r="100" fill="rgba(255,255,255,0.08)"/>
<circle cx="260" cy="46" r="46" fill="#FFDB4D"/>
<path d="M260 46 L294 20 A46 46 0 1 1 294 72 Z" fill="#090D18"/>
<circle cx="350" cy="50" r="10" fill="#FFDB4D"/><circle cx="378" cy="50" r="10" fill="#FFDB4D"/><circle cx="406" cy="50" r="10" fill="#FFDB4D"/>
</g>
<rect x="74" y="556" width="220" height="52" rx="18" fill="rgba(255,255,255,0.14)" stroke="rgba(255,255,255,0.25)"/>
<text x="184" y="590" text-anchor="middle" fill="white" font-size="22" font-family="Arial" font-weight="700">Explore More</text>
</svg>